<?xml version="1.0" encoding="UTF-8" standalone="no"?>
<svg width="198px" height="100px" viewBox="0 0 198 100" version="1.1" xmlns="http://www.w3.org/2000/svg" xmlns:xlink="http://www.w3.org/1999/xlink" xmlns:sketch="http://www.bohemiancoding.com/sketch/ns">
    <!-- Generator: Sketch 3.4.4 (17249) - http://www.bohemiancoding.com/sketch -->
    <title>Group</title>
    <desc>Created with Sketch.</desc>
    <defs></defs>
    <g id="Page-1" stroke="none" stroke-width="1" fill="none" fill-rule="evenodd" sketch:type="MSPage">
        <g id="Mobile-first" sketch:type="MSArtboardGroup" transform="translate(-30.000000, -28.000000)">
            <g id="Group" sketch:type="MSLayerGroup" transform="translate(30.000000, 28.000000)">
                <path d="M0.31,34.906 L4.154,34.906 L4.154,53.754 C4.154,60.512 7.936,62.496 14.198,62.496 C16.74,62.496 18.662,62.124 20.026,61.69 L20.026,56.854 L17.794,56.854 C14.446,56.854 13.206,56.234 13.206,52.762 L13.206,34.906 L19.778,34.906 L19.778,29.45 L13.206,29.45 L13.206,20.77 L4.154,20.77 L4.154,29.45 L0.31,29.45 L0.31,34.906 Z M33.294,62.434 C38.502,62.434 42.098,60.76 45.074,57.97 C45.322,61.194 45.88,62 46.934,62 L57.722,62 L57.722,56.854 L55.614,56.854 C54.87,56.854 54.064,55.862 54.064,55.18 L54.064,29.45 L40.734,29.45 L40.734,34.906 L45.012,34.906 L45.012,54.498 C43.028,55.304 40.548,56.048 38.192,56.048 C35.34,56.048 33.604,55.056 33.604,51.522 L33.604,29.45 L20.894,29.45 L20.894,34.906 L23.002,34.906 C23.684,34.906 24.552,35.712 24.552,36.456 L24.552,54.374 C24.552,60.698 28.768,62.434 33.294,62.434 L33.294,62.434 Z M57.97,34.906 L61.814,34.906 L61.814,53.754 C61.814,60.512 65.596,62.496 71.858,62.496 C74.4,62.496 76.322,62.124 77.686,61.69 L77.686,56.854 L75.454,56.854 C72.106,56.854 70.866,56.234 70.866,52.762 L70.866,34.906 L77.438,34.906 L77.438,29.45 L70.866,29.45 L70.866,20.77 L61.814,20.77 L61.814,29.45 L57.97,29.45 L57.97,34.906 Z M90.954,62.434 C96.162,62.434 99.758,60.76 102.734,57.97 C102.982,61.194 103.54,62 104.594,62 L115.382,62 L115.382,56.854 L113.274,56.854 C112.53,56.854 111.724,55.862 111.724,55.18 L111.724,29.45 L98.394,29.45 L98.394,34.906 L102.672,34.906 L102.672,54.498 C100.688,55.304 98.208,56.048 95.852,56.048 C93,56.048 91.264,55.056 91.264,51.522 L91.264,29.45 L78.554,29.45 L78.554,34.906 L80.662,34.906 C81.344,34.906 82.212,35.712 82.212,36.456 L82.212,54.374 C82.212,60.698 86.428,62.434 90.954,62.434 L90.954,62.434 Z M116.498,62 L133.796,62 L133.796,56.854 L129.27,56.854 L129.27,38.13 C131.068,37.138 133.92,36.146 138.632,36.146 L140.182,36.146 L140.182,29.45 C139.562,29.264 138.88,29.14 138.198,29.14 C133.92,29.14 131.378,31.496 129.208,34.162 C129.084,30.38 128.402,29.45 127.348,29.45 L116.25,29.45 L116.25,34.906 L118.668,34.906 C119.412,34.906 120.218,35.898 120.218,36.58 L120.218,55.304 C120.218,55.986 119.412,56.854 118.668,56.854 L116.498,56.854 L116.498,62 Z M153.636,62.434 C158.844,62.434 162.44,60.76 165.416,57.97 C165.664,61.194 166.222,62 167.276,62 L178.064,62 L178.064,56.854 L175.956,56.854 C175.212,56.854 174.406,55.862 174.406,55.18 L174.406,29.45 L161.076,29.45 L161.076,34.906 L165.354,34.906 L165.354,54.498 C163.37,55.304 160.89,56.048 158.534,56.048 C155.682,56.048 153.946,55.056 153.946,51.522 L153.946,29.45 L141.236,29.45 L141.236,34.906 L143.344,34.906 C144.026,34.906 144.894,35.712 144.894,36.456 L144.894,54.374 C144.894,60.698 149.11,62.434 153.636,62.434 L153.636,62.434 Z" id="tuturu" fill="#000000" sketch:type="MSShapeGroup"></path>
                <circle id="Oval-1" stroke="#8368EB" stroke-width="6" sketch:type="MSShapeGroup" cx="45.5" cy="86.5" r="7.5"></circle>
                <rect id="Rectangle-2" fill="#F6A623" sketch:type="MSShapeGroup" transform="translate(187.966945, 11.966945) rotate(-335.000000) translate(-187.966945, -11.966945) " x="180.466945" y="4.46694537" width="15" height="15"></rect>
                <polygon id="Triangle-1" fill="#50E3C2" sketch:type="MSShapeGroup" transform="translate(38.298203, 11.298203) rotate(-132.000000) translate(-38.298203, -11.298203) " points="38.2982035 3.29820345 46.2982035 19.2982035 30.2982035 19.2982035 "></polygon>
            </g>
        </g>
    </g>
</svg>